<mxfile host="app.diagrams.net" modified="2022-04-25T14:36:21.816Z" agent="5.0 (X11)" etag="_gp1KgG4jQ9h0CKAD0nt" version="17.4.6" type="github">
  <diagram id="Sgw0iDoT6AuvSw-Sp8IE" name="Page-1">
    <mxGraphModel dx="782" dy="680" grid="1" gridSize="10" guides="1" tooltips="1" connect="1" arrows="1" fold="1" page="1" pageScale="1" pageWidth="827" pageHeight="1169" math="0" shadow="0">
      <root>
        <mxCell id="0" />
        <mxCell id="1" parent="0" />
        <mxCell id="p7iKzUHPkBEzGpdbl421-2" value="" style="ellipse;whiteSpace=wrap;html=1;aspect=fixed;" parent="1" vertex="1">
          <mxGeometry x="120" y="380" width="20" height="20" as="geometry" />
        </mxCell>
        <mxCell id="p7iKzUHPkBEzGpdbl421-3" value="" style="endArrow=none;html=1;rounded=0;entryX=0.75;entryY=1;entryDx=0;entryDy=0;" parent="1" source="p7iKzUHPkBEzGpdbl421-2" target="p7iKzUHPkBEzGpdbl421-7" edge="1">
          <mxGeometry width="50" height="50" relative="1" as="geometry">
            <mxPoint x="380" y="380" as="sourcePoint" />
            <mxPoint x="260" y="110" as="targetPoint" />
          </mxGeometry>
        </mxCell>
        <mxCell id="p7iKzUHPkBEzGpdbl421-4" value="nome" style="text;html=1;strokeColor=none;fillColor=none;align=center;verticalAlign=middle;whiteSpace=wrap;rounded=0;rotation=270;" parent="1" vertex="1">
          <mxGeometry x="100" y="410" width="60" height="30" as="geometry" />
        </mxCell>
        <mxCell id="p7iKzUHPkBEzGpdbl421-7" value="Empregado" style="rounded=0;whiteSpace=wrap;html=1;" parent="1" vertex="1">
          <mxGeometry x="40" y="310" width="120" height="60" as="geometry" />
        </mxCell>
        <mxCell id="p7iKzUHPkBEzGpdbl421-8" value="Dependente" style="rounded=0;whiteSpace=wrap;html=1;" parent="1" vertex="1">
          <mxGeometry x="360" y="310" width="120" height="60" as="geometry" />
        </mxCell>
        <mxCell id="p7iKzUHPkBEzGpdbl421-11" value="Possui" style="rhombus;whiteSpace=wrap;html=1;" parent="1" vertex="1">
          <mxGeometry x="220" y="300" width="80" height="80" as="geometry" />
        </mxCell>
        <mxCell id="p7iKzUHPkBEzGpdbl421-12" value="" style="endArrow=none;html=1;rounded=0;entryX=0.968;entryY=0.47;entryDx=0;entryDy=0;entryPerimeter=0;exitX=-0.001;exitY=0.46;exitDx=0;exitDy=0;exitPerimeter=0;" parent="1" source="p7iKzUHPkBEzGpdbl421-8" target="p7iKzUHPkBEzGpdbl421-11" edge="1">
          <mxGeometry width="50" height="50" relative="1" as="geometry">
            <mxPoint x="380" y="320" as="sourcePoint" />
            <mxPoint x="430" y="270" as="targetPoint" />
          </mxGeometry>
        </mxCell>
        <mxCell id="p7iKzUHPkBEzGpdbl421-13" value="" style="endArrow=none;html=1;rounded=0;" parent="1" source="p7iKzUHPkBEzGpdbl421-11" target="p7iKzUHPkBEzGpdbl421-7" edge="1">
          <mxGeometry width="50" height="50" relative="1" as="geometry">
            <mxPoint x="370" y="350" as="sourcePoint" />
            <mxPoint x="310" y="350" as="targetPoint" />
          </mxGeometry>
        </mxCell>
        <mxCell id="p7iKzUHPkBEzGpdbl421-14" value="" style="endArrow=none;html=1;rounded=0;entryX=0.976;entryY=0.525;entryDx=0;entryDy=0;entryPerimeter=0;" parent="1" target="p7iKzUHPkBEzGpdbl421-11" edge="1">
          <mxGeometry width="50" height="50" relative="1" as="geometry">
            <mxPoint x="360" y="342" as="sourcePoint" />
            <mxPoint x="297.56" y="339.93" as="targetPoint" />
          </mxGeometry>
        </mxCell>
        <mxCell id="p7iKzUHPkBEzGpdbl421-15" value="(1,n)" style="text;html=1;strokeColor=none;fillColor=none;align=center;verticalAlign=middle;whiteSpace=wrap;rounded=0;" parent="1" vertex="1">
          <mxGeometry x="160" y="310" width="60" height="30" as="geometry" />
        </mxCell>
        <mxCell id="p7iKzUHPkBEzGpdbl421-16" value="(0,n)" style="text;html=1;strokeColor=none;fillColor=none;align=center;verticalAlign=middle;whiteSpace=wrap;rounded=0;" parent="1" vertex="1">
          <mxGeometry x="300" y="310" width="60" height="30" as="geometry" />
        </mxCell>
        <mxCell id="p7iKzUHPkBEzGpdbl421-18" value="" style="ellipse;whiteSpace=wrap;html=1;aspect=fixed;fillColor=#999999;" parent="1" vertex="1">
          <mxGeometry x="90" y="380" width="20" height="20" as="geometry" />
        </mxCell>
        <mxCell id="p7iKzUHPkBEzGpdbl421-20" value="&lt;u&gt;codigo&lt;/u&gt;" style="text;html=1;strokeColor=none;fillColor=none;align=center;verticalAlign=middle;whiteSpace=wrap;rounded=0;rotation=270;" parent="1" vertex="1">
          <mxGeometry x="70" y="410" width="60" height="30" as="geometry" />
        </mxCell>
        <mxCell id="p7iKzUHPkBEzGpdbl421-21" value="&lt;u&gt;numero_sequencia&lt;/u&gt;" style="text;html=1;strokeColor=none;fillColor=none;align=center;verticalAlign=middle;whiteSpace=wrap;rounded=0;rotation=270;" parent="1" vertex="1">
          <mxGeometry x="384" y="440" width="60" height="30" as="geometry" />
        </mxCell>
        <mxCell id="p7iKzUHPkBEzGpdbl421-22" value="" style="endArrow=none;html=1;rounded=0;" parent="1" source="p7iKzUHPkBEzGpdbl421-18" target="p7iKzUHPkBEzGpdbl421-7" edge="1">
          <mxGeometry width="50" height="50" relative="1" as="geometry">
            <mxPoint x="190" y="350" as="sourcePoint" />
            <mxPoint x="240" y="300" as="targetPoint" />
          </mxGeometry>
        </mxCell>
        <mxCell id="p7iKzUHPkBEzGpdbl421-23" value="" style="endArrow=none;html=1;rounded=0;" parent="1" source="p7iKzUHPkBEzGpdbl421-29" target="p7iKzUHPkBEzGpdbl421-8" edge="1">
          <mxGeometry width="50" height="50" relative="1" as="geometry">
            <mxPoint x="420" y="379.9999999999999" as="sourcePoint" />
            <mxPoint x="110" y="380" as="targetPoint" />
          </mxGeometry>
        </mxCell>
        <mxCell id="p7iKzUHPkBEzGpdbl421-25" value="" style="ellipse;whiteSpace=wrap;html=1;aspect=fixed;" parent="1" vertex="1">
          <mxGeometry x="60" y="380" width="20" height="20" as="geometry" />
        </mxCell>
        <mxCell id="p7iKzUHPkBEzGpdbl421-26" value="" style="endArrow=none;html=1;rounded=0;entryX=0.25;entryY=1;entryDx=0;entryDy=0;" parent="1" source="p7iKzUHPkBEzGpdbl421-25" target="p7iKzUHPkBEzGpdbl421-7" edge="1">
          <mxGeometry width="50" height="50" relative="1" as="geometry">
            <mxPoint x="140" y="390" as="sourcePoint" />
            <mxPoint x="140" y="380" as="targetPoint" />
          </mxGeometry>
        </mxCell>
        <mxCell id="p7iKzUHPkBEzGpdbl421-27" value="ocupacao" style="text;html=1;strokeColor=none;fillColor=none;align=center;verticalAlign=middle;whiteSpace=wrap;rounded=0;rotation=-90;" parent="1" vertex="1">
          <mxGeometry x="40" y="420" width="60" height="30" as="geometry" />
        </mxCell>
        <mxCell id="p7iKzUHPkBEzGpdbl421-28" value="" style="ellipse;whiteSpace=wrap;html=1;aspect=fixed;" parent="1" vertex="1">
          <mxGeometry x="440" y="380" width="20" height="20" as="geometry" />
        </mxCell>
        <mxCell id="p7iKzUHPkBEzGpdbl421-29" value="" style="ellipse;whiteSpace=wrap;html=1;aspect=fixed;fillColor=#999999;" parent="1" vertex="1">
          <mxGeometry x="410" y="380" width="20" height="20" as="geometry" />
        </mxCell>
        <mxCell id="p7iKzUHPkBEzGpdbl421-30" value="" style="ellipse;whiteSpace=wrap;html=1;aspect=fixed;" parent="1" vertex="1">
          <mxGeometry x="380" y="380" width="20" height="20" as="geometry" />
        </mxCell>
        <mxCell id="p7iKzUHPkBEzGpdbl421-31" value="" style="endArrow=none;html=1;rounded=0;entryX=0.75;entryY=1;entryDx=0;entryDy=0;" parent="1" source="p7iKzUHPkBEzGpdbl421-28" target="p7iKzUHPkBEzGpdbl421-8" edge="1">
          <mxGeometry width="50" height="50" relative="1" as="geometry">
            <mxPoint x="430" y="390" as="sourcePoint" />
            <mxPoint x="430" y="380" as="targetPoint" />
          </mxGeometry>
        </mxCell>
        <mxCell id="p7iKzUHPkBEzGpdbl421-32" value="" style="endArrow=none;html=1;rounded=0;entryX=0.25;entryY=1;entryDx=0;entryDy=0;" parent="1" source="p7iKzUHPkBEzGpdbl421-30" target="p7iKzUHPkBEzGpdbl421-8" edge="1">
          <mxGeometry width="50" height="50" relative="1" as="geometry">
            <mxPoint x="460" y="390" as="sourcePoint" />
            <mxPoint x="460" y="380" as="targetPoint" />
          </mxGeometry>
        </mxCell>
        <mxCell id="p7iKzUHPkBEzGpdbl421-33" value="nome" style="text;html=1;strokeColor=none;fillColor=none;align=center;verticalAlign=middle;whiteSpace=wrap;rounded=0;rotation=-90;" parent="1" vertex="1">
          <mxGeometry x="420" y="410" width="60" height="30" as="geometry" />
        </mxCell>
        <mxCell id="p7iKzUHPkBEzGpdbl421-34" value="ocupacao" style="text;html=1;strokeColor=none;fillColor=none;align=center;verticalAlign=middle;whiteSpace=wrap;rounded=0;rotation=-90;" parent="1" vertex="1">
          <mxGeometry x="360" y="420" width="60" height="30" as="geometry" />
        </mxCell>
      </root>
    </mxGraphModel>
  </diagram>
</mxfile>
